<svg width="980" height="1007" viewBox="0 0 980 1007" fill="none" xmlns="http://www.w3.org/2000/svg">
<path d="M172.07 160.62L172.31 172.62L173 184.12L174.13 195.12L175.69 205.62L177.69 215.62L180.07 225.37L182.81 234.87L185.94 244.12L189.44 253.12L193.19 261.74L197.19 270L201.44 277.87L205.94 285.37L214.19 286.37L226.19 280.87L241.94 268.87L261.44 250.37L278.38 234.74L292.75 222L304.57 212.12L313.81 205.12L323 198.43L332.13 192.06L341.19 186L350.19 180.24L359.19 174.74L368.19 169.5L377.19 164.5L386.19 159.74L395.81 155L406.07 150.24L416.94 145.5L428.44 140.74L439.63 136.37L450.5 132.37L461.07 128.74L471.31 125.5L481.44 122.5L491.44 119.74L501.31 117.24L511.07 115L522.69 112.81L536.19 110.68L551.57 108.62L568.81 106.62L585 105.18L600.13 104.31L614.19 104L627.19 104.24L639.81 104.81L652.07 105.68L663.94 106.87L675.44 108.37L686.5 110.06L697.13 111.93L707.31 114L717.07 116.24L727.07 118.81L737.31 121.68L747.81 124.87L758.57 128.37L768.57 131.81L777.81 135.18L786.31 138.5L794.07 141.74L803.25 146L813.88 151.24L825.94 157.5L839.44 164.74L847.88 168.12L851.25 167.62L849.57 163.24L842.81 155L835.5 146.68L827.63 138.31L819.19 129.87L810.19 121.37L801.5 113.5L793.13 106.24L785.07 99.62L777.31 93.62L768.13 87.06L757.5 79.93L745.44 72.24L731.94 64L718.88 56.5L706.25 49.74L694.07 43.74L682.31 38.5L670.69 33.62L659.19 29.12L647.81 25L636.57 21.24L624.88 17.74L612.75 14.5L600.19 11.5L587.19 8.74001L574.38 6.37L561.75 4.37L549.31 2.74001L537.07 1.5L524.19 0.620003L510.69 0.120003L496.57 0L481.81 0.240005L467.44 0.870003L453.44 1.87L439.81 3.24001L426.57 5L413.69 7L401.19 9.24001L389.07 11.74L377.31 14.5L365.5 17.62L353.63 21.12L341.69 25L329.69 29.24L317.44 34.12L304.94 39.62L292.19 45.74L279.19 52.5L266.44 59.56L253.94 66.93L241.69 74.62L229.69 82.62L218.38 90.62L207.75 98.62L197.81 106.62L188.57 114.62L181.44 121.62L176.44 127.62L173.57 132.62L172.81 136.62L172.31 142.62L172.07 150.62V160.62Z" fill="white"/>
<path d="M126.81 177L119.57 185.24L112.25 194.12L104.88 203.62L97.4399 213.74L89.9399 224.5L83.0699 234.74L76.8099 244.5L71.1899 253.74L66.1899 262.5L60.9999 272.24L55.6299 283L50.0699 294.74L44.3099 307.5L39.1899 319.56L34.6899 330.93L30.8099 341.62L27.5699 351.62L24.6899 361.06L22.1899 369.93L20.0699 378.24L18.3099 386L17.1299 393.06L16.4999 399.43L16.4399 405.12L16.9399 410.12L18.1899 416.5L20.1899 424.24L22.9399 433.37L26.4399 443.87L30.3099 454.37L34.5699 464.87L39.1899 475.37L44.1899 485.87L50.0699 497.06L56.8099 508.93L64.4399 521.5L72.9399 534.74L80.9399 546.62L88.4399 557.12L95.4399 566.24L101.94 574L108.38 581.37L114.75 588.37L121.07 595L127.31 601.24L133.88 607.5L140.75 613.74L147.94 620L155.44 626.24L164.31 633.06L174.57 640.43L186.19 648.37L199.19 656.87L211.94 664.68L224.44 671.81L236.69 678.24L248.69 684L260.94 689.37L273.44 694.37L286.19 699L299.19 703.24L311.69 706.93L323.69 710.06L335.19 712.62L346.19 714.62L355.13 712.5L362 706.24L366.81 695.87L369.57 681.37L371.81 668.06L373.57 655.93L374.81 645L375.57 635.24L376.13 625.74L376.5 616.5L376.69 607.5V598.74L376.31 588.62L375.57 577.12L374.44 564.24L372.94 550L370.81 535.74L368.07 521.5L364.69 507.24L360.69 493L355.31 480.87L348.57 470.87L340.44 463L330.94 457.24L321.07 450.87L310.81 443.87L300.19 436.24L289.19 428L278.25 419.31L267.38 410.18L256.57 400.62L245.81 390.62L235.88 381L226.75 371.74L218.44 362.87L210.94 354.37L203.5 345.12L196.13 335.12L188.81 324.37L181.57 312.87L175.13 302L169.5 291.74L164.69 282.12L160.69 273.12L156.88 263.37L153.25 252.87L149.81 241.62L146.57 229.62L143.88 217.68L141.75 205.81L140.19 194L139.19 182.24L136.63 175.5L132.5 173.74L126.81 177Z" fill="white"/>
<path d="M907.07 254.62L909.31 266.62L911.31 279.18L913.07 292.31L914.57 306L915.81 320.24L916.75 334.06L917.38 347.43L917.69 360.37V372.87L917.44 385.5L916.94 398.24L916.19 411.12L915.19 424.12L913.94 437.06L912.44 449.93L910.69 462.74L908.69 475.5L906.25 489.18L903.38 503.81L900.07 519.37L896.31 535.87L892.88 550.43L889.75 563.06L886.94 573.74L884.44 582.5L880.88 593.87L876.25 607.87L870.57 624.5L863.81 643.74L857.31 661.5L851.07 677.74L845.07 692.5L839.31 705.74L833.44 718.74L827.44 731.5L821.31 744L815.07 756.24L808.69 768.24L802.19 780L795.57 791.5L788.81 802.74L781.81 813.93L774.57 825.06L767.07 836.12L759.31 847.12L751.38 857.87L743.25 868.37L734.94 878.62L726.44 888.62L718.19 898L710.19 906.74L702.44 914.87L694.94 922.37L686.25 930.5L676.38 939.24L665.31 948.62L653.07 958.62L641.75 967.5L631.38 975.24L621.94 981.87L613.44 987.37L610.07 990.56L611.81 991.43L618.69 990L630.69 986.24L643.57 981.68L657.31 976.31L671.94 970.12L687.44 963.12L702.07 956.06L715.81 948.93L728.69 941.74L740.69 934.5L752.44 926.93L763.94 919.06L775.19 910.87L786.19 902.37L797.13 893.37L808 883.87L818.81 873.87L829.57 863.37L839.88 852.74L849.75 842L859.19 831.12L868.19 820.12L876.69 809.18L884.69 798.31L892.19 787.5L899.19 776.74L906.5 764.43L914.13 750.56L922.07 735.12L930.31 718.12L937.75 701.56L944.38 685.43L950.19 669.74L955.19 654.5L959.75 639L963.88 623.24L967.57 607.24L970.81 591L973.5 576L975.63 562.24L977.19 549.74L978.19 538.5L978.88 526.37L979.25 513.37L979.31 499.5L979.07 484.74L978.44 470.31L977.44 456.18L976.07 442.37L974.31 428.87L972 414.81L969.13 400.18L965.69 385L961.69 369.24L957.5 354.37L953.13 340.37L948.57 327.24L943.81 315L938.19 302.06L931.69 288.43L924.31 274.12L916.07 259.12L910.44 250.87L907.44 249.37L907.07 254.62Z" fill="white"/>
<path d="M592.69 356.87V358.37L594 363.06L596.63 370.93L600.57 382L605.81 396.24L610.44 409.93L614.44 423.06L617.81 435.62L620.57 447.62L622.75 456.74L624.38 463L625.44 466.37L625.94 466.87L628.57 466.62L633.31 465.62L640.19 463.87L649.19 461.37L658.44 459.06L667.94 456.93L677.69 455L687.69 453.24L697.19 451.74L706.19 450.5L714.69 449.5L722.69 448.74L730.94 448.18L739.44 447.81L748.19 447.62H757.19L766.75 447.93L776.88 448.56L787.57 449.5L798.81 450.74L809.38 452.18L819.25 453.81L828.44 455.62L836.94 457.62L845.13 459.81L853 462.18L860.57 464.74L867.81 467.5L873.38 469.43L877.25 470.56L879.44 470.87L879.94 470.37L880.75 466.5L881.88 459.24L883.31 448.62L885.07 434.62L886.44 421.87L887.44 410.37L888.07 400.12L888.31 391.12L887.81 383.87L886.57 378.37L884.57 374.62L881.81 372.62L877.44 370.06L871.44 366.93L863.81 363.24L854.57 359L845.88 355.24L837.75 352L830.19 349.24L823.19 347L815.88 344.87L808.25 342.87L800.31 341L792.07 339.24L783.44 337.68L774.44 336.31L765.07 335.12L755.31 334.12L746 333.37L737.13 332.87L728.69 332.62H720.69L710.63 333.12L698.5 334.12L684.31 335.62L668.07 337.62L653.13 339.74L639.5 342L627.19 344.37L616.19 346.87L607.5 349L601.13 350.74L597.07 352.12L595.31 353.12L594 354.24L593.13 355.5L592.69 356.87Z" fill="white"/>
<path d="M0.940002 481.5L0.440002 488.74L0.130005 496.68L0 505.31L0.0700073 514.62L0.309998 524.62L1.13 536.74L2.5 551L4.44 567.37L6.94 585.87L10.19 604.56L14.19 623.43L18.94 642.5L24.44 661.74L29.44 678.37L33.94 692.37L37.94 703.74L41.44 712.5L44.94 720.81L48.44 728.68L51.94 736.12L55.44 743.12L59.07 750.06L62.81 756.93L66.69 763.74L70.69 770.5L75.44 778.06L80.94 786.43L87.19 795.62L94.19 805.62L101.19 815.18L108.19 824.31L115.19 833L122.19 841.24L128.94 848.93L135.44 856.06L141.69 862.62L147.69 868.62L155.13 875.5L164 883.24L174.31 891.87L186.07 901.37L197.13 909.93L207.5 917.56L217.19 924.24L226.19 930L234.31 934.93L241.57 939.06L247.94 942.37L253.44 944.87L259.5 943.87L266.13 939.37L273.31 931.37L281.07 919.87L288.44 908.24L295.44 896.5L302.07 884.62L308.31 872.62L314.38 860.24L320.25 847.5L325.94 834.37L331.44 820.87L336.5 807.56L341.13 794.43L345.31 781.5L349.07 768.74L348.44 758.5L343.44 750.74L334.07 745.5L320.31 742.74L306.88 739.62L293.75 736.12L280.94 732.24L268.44 728L255.31 722.93L241.57 717.06L227.19 710.37L212.19 702.87L198.25 695.43L185.38 688.06L173.57 680.74L162.81 673.5L152.81 666.43L143.57 659.56L135.07 652.87L127.31 646.37L119.57 639.56L111.81 632.43L104.07 625L96.31 617.24L89.13 609.81L82.5 602.68L76.44 595.87L70.94 589.37L65.31 582.37L59.57 574.87L53.69 566.87L47.69 558.37L42.13 550.18L37 542.31L32.31 534.74L28.07 527.5L23.63 519.18L19 509.81L14.19 499.37L9.19 487.87L5.31 481.06L2.57001 478.93L0.940002 481.5Z" fill="white"/>
<path d="M836.31 606.62L832.07 604.62L827.44 602.68L822.44 600.81L817.07 599L811.31 597.24L804.38 595.56L796.25 593.93L786.94 592.37L776.44 590.87L766.75 589.74L757.88 589L749.81 588.62H742.57L734.69 588.93L726.19 589.56L717.07 590.5L707.31 591.74L698 593.18L689.13 594.81L680.69 596.62L672.69 598.62L665.31 600.62L658.57 602.62L652.44 604.62L646.94 606.62L642.5 612.31L639.13 621.68L636.81 634.74L635.57 651.5L634.19 667.06L632.69 681.43L631.07 694.62L629.31 706.62L627.07 719.68L624.31 733.81L621.07 749L617.31 765.24L613.57 780.37L609.81 794.37L606.07 807.24L602.31 819L598.19 831.06L593.69 843.43L588.81 856.12L583.57 869.12L578.44 881.24L573.44 892.5L568.57 902.87L563.81 912.37L558.88 921.87L553.75 931.37L548.44 940.87L542.94 950.37L536.94 960.18L530.44 970.31L523.44 980.74L515.94 991.5L511 999.43L508.63 1004.56L508.81 1006.87L511.57 1006.37L515.25 1005.31L519.88 1003.68L525.44 1001.5L531.94 998.74L539.31 995.37L547.57 991.37L556.69 986.74L566.69 981.5L576.25 976.24L585.38 971L594.07 965.74L602.31 960.5L611.19 954.43L620.69 947.56L630.81 939.87L641.57 931.37L652.5 922.06L663.63 911.93L674.94 901L686.44 889.24L696.88 878.12L706.25 867.62L714.57 857.74L721.81 848.5L728.69 839.43L735.19 830.56L741.31 821.87L747.07 813.37L753.31 803.62L760.07 792.62L767.31 780.37L775.07 766.87L783.07 752.06L791.31 735.93L799.81 718.5L808.57 699.74L816.5 682L823.63 665.24L829.94 649.5L835.44 634.74L839.5 623.5L842.13 615.74L843.31 611.5L843.07 610.74L841.81 609.68L839.57 608.31L836.31 606.62Z" fill="white"/>
<path d="M888.31 331.87L888.07 323.37L887.5 314.24L886.63 304.5L885.44 294.12L883.94 283.12L882.13 272.06L880 260.93L877.57 249.74L874.81 238.5L872.44 229.56L870.44 222.93L868.81 218.62L867.57 216.62L864.13 213.5L858.5 209.24L850.69 203.87L840.69 197.37L829.19 190.68L816.19 183.81L801.69 176.74L785.69 169.5L769.88 163L754.25 157.24L738.81 152.24L723.57 148L708.25 144.31L692.88 141.18L677.44 138.62L661.94 136.62L647.31 135.12L633.57 134.12L620.69 133.62H608.69L595.88 134.12L582.25 135.12L567.81 136.62L552.57 138.62L537.75 141L523.38 143.74L509.44 146.87L495.94 150.37L482.38 154.31L468.75 158.68L455.07 163.5L441.31 168.74L427.75 174.43L414.38 180.56L401.19 187.12L388.19 194.12L375.38 201.5L362.75 209.24L350.31 217.37L338.07 225.87L326.13 234.62L314.5 243.62L303.19 252.87L292.19 262.37L281.31 272.37L270.57 282.87L259.94 293.87L249.44 305.37L241.57 314.37L236.31 320.87L233.69 324.87V326.37L234 327.93L234.63 329.56L235.57 331.24L236.81 333L240.57 337.18L246.81 343.81L255.57 352.87L266.81 364.37L277.5 374.81L287.63 384.18L297.19 392.5L306.19 399.74L315.75 407L325.88 414.24L336.57 421.5L347.81 428.74L356.63 434.18L363 437.81L366.94 439.62H368.44L371.75 437.74L376.88 434L383.81 428.37L392.57 420.87L401.63 413.5L411 406.24L420.69 399.12L430.69 392.12L440.69 385.5L450.69 379.24L460.69 373.37L470.69 367.87L482.88 361.87L497.25 355.37L513.81 348.37L532.57 340.87L551.69 334L571.19 327.74L591.07 322.12L611.31 317.12L630.44 312.93L648.44 309.56L665.31 307L681.07 305.24L694.81 303.93L706.57 303.06L716.31 302.62H724.07L731.94 302.81L739.94 303.18L748.07 303.74L756.31 304.5L765.88 305.74L776.75 307.5L788.94 309.74L802.44 312.5L814.81 315.37L826.07 318.37L836.19 321.5L845.19 324.74L853.81 328.12L862.07 331.62L869.94 335.24L877.44 339L883 339.68L886.63 337.31L888.31 331.87Z" fill="#A36AF0"/>
<path d="M556.81 364.62H555.57L552.81 365.31L548.57 366.68L542.81 368.74L535.57 371.5L526.94 375.12L516.94 379.62L505.57 385L492.81 391.24L480.25 397.93L467.88 405.06L455.69 412.62L443.69 420.62L432.38 428.68L421.75 436.81L411.81 445L402.57 453.24L396.5 463.12L393.63 474.62L393.94 487.74L397.44 502.5L400.44 516.81L402.94 530.68L404.94 544.12L406.44 557.12L407.57 570.18L408.31 583.31L408.69 596.5V609.74L408.25 623.68L407.38 638.31L406.07 653.62L404.31 669.62L401.81 686.56L398.57 704.43L394.57 723.24L389.81 743L384.44 762.74L378.44 782.5L371.81 802.24L364.57 822L357.13 840.74L349.5 858.5L341.69 875.24L333.69 891L325.69 905.74L317.69 919.5L309.69 932.24L301.69 944L295.75 953L291.88 959.24L290.07 962.74L290.31 963.5L294.07 965.43L301.31 968.56L312.07 972.87L326.31 978.37L339.5 983.18L351.63 987.31L362.69 990.74L372.69 993.5L383.13 996.06L394 998.43L405.31 1000.62L417.07 1002.62L427.69 1004.18L437.19 1005.31L445.57 1006L452.81 1006.24L458.88 1005.87L463.75 1004.87L467.44 1003.24L469.94 1001L473.88 996.43L479.25 989.56L486.07 980.37L494.31 968.87L501.88 957.87L508.75 947.37L514.94 937.37L520.44 927.87L526.07 917.62L531.81 906.62L537.69 894.87L543.69 882.37L549.57 869.31L555.31 855.68L560.94 841.5L566.44 826.74L571.75 811.18L576.88 794.81L581.81 777.62L586.57 759.62L590.75 742.18L594.38 725.31L597.44 709L599.94 693.24L602.07 677.74L603.81 662.5L605.19 647.5L606.19 632.74L606.81 617.56L607.07 601.93L606.94 585.87L606.44 569.37L605.57 553.12L604.31 537.12L602.69 521.37L600.69 505.87L598.25 490.37L595.38 474.87L592.07 459.37L588.31 443.87L584.63 429.81L581 417.18L577.44 406L573.94 396.24L570.88 388L568.25 381.24L566.07 376L564.31 372.24L562.81 369.31L561.57 367.18L560.57 365.87L559.81 365.37L558.94 365L557.94 364.74L556.81 364.62Z" fill="#A36AF0"/>
<path d="M632.57 514.37L633.81 524.87L634.81 535L635.57 544.74L636.07 554.12L636.31 563.12L636.63 570L637 574.74L637.44 577.37L637.94 577.87L640.25 577.68L644.38 576.81L650.31 575.24L658.07 573L666.63 570.81L676 568.68L686.19 566.62L697.19 564.62L708.81 563.06L721.07 561.93L733.94 561.24L747.44 561L760.25 561.24L772.38 562L783.81 563.24L794.57 565L805.25 567.24L815.88 570L826.44 573.24L836.94 577L845.44 578L851.94 576.24L856.44 571.74L858.94 564.5L861.5 556.12L864.13 546.62L866.81 536L869.57 524.24L871.5 515L872.63 508.24L872.94 504L872.44 502.24L870.38 500.31L866.75 498.18L861.57 495.87L854.81 493.37L847.63 491L840 488.74L831.94 486.62L823.44 484.62L815 482.87L806.63 481.37L798.31 480.12L790.07 479.12L780.88 478.37L770.75 477.87L759.69 477.62H747.69L736.88 477.81L727.25 478.18L718.81 478.74L711.57 479.5L703 480.68L693.13 482.31L681.94 484.37L669.44 486.87L659 489.06L650.63 490.93L644.31 492.5L640.07 493.74L636.69 494.87L634.19 495.87L632.57 496.74L631.81 497.5L631.57 500.68L631.81 506.31L632.57 514.37Z" fill="#A36AF0"/>
</svg>
